<svg width="1076" height="144" viewBox="0 0 1076 144" fill="none" xmlns="http://www.w3.org/2000/svg">
<path d="M132.125 129.817H120.273C121.853 129.817 123.417 129.5 124.872 128.884C126.283 128.287 127.565 127.422 128.647 126.337C129.732 125.254 130.596 123.971 131.193 122.559C131.811 121.095 132.128 119.522 132.125 117.933V65.6404C132.128 64.0514 131.811 62.4782 131.193 61.0148C130.596 59.6026 129.732 58.3196 128.647 57.237C127.545 56.1318 126.236 55.2553 124.795 54.6579C123.354 54.0605 121.81 53.754 120.25 53.756H132.125C133.713 53.7528 135.285 54.0702 136.747 54.6892C138.158 55.2861 139.44 56.1511 140.522 57.2364C141.606 58.3191 142.47 59.602 143.067 61.0142C143.686 62.4777 144.003 64.0512 144 65.6404V117.933C144.003 119.521 143.686 121.095 143.067 122.558C142.471 123.97 141.607 125.253 140.522 126.335C139.42 127.441 138.111 128.317 136.67 128.915C135.229 129.512 133.685 129.819 132.125 129.817Z" fill="#F59E0B"/>
<path d="M95.3043 143.99C94.55 143.943 93.8254 143.678 93.2179 143.228L74.8512 129.817H67.999C66.4117 129.819 64.8402 129.502 63.3778 128.884C61.9676 128.286 60.6859 127.421 59.6029 126.337C58.4987 125.234 57.6229 123.924 57.026 122.482C56.429 121.04 56.1227 119.494 56.1245 117.933V65.6404C56.1224 64.0515 56.4394 62.4785 57.0569 61.0148C57.6546 59.6033 58.5189 58.3206 59.6023 57.237C60.704 56.1317 62.0129 55.2552 63.454 54.6577C64.8951 54.0602 66.4399 53.7536 67.9997 53.7553L120.25 53.756C121.837 53.754 123.409 54.0709 124.872 54.6892C127.719 55.8964 129.985 58.1646 131.192 61.0142C131.81 62.478 132.127 64.0513 132.125 65.6404V117.933C132.127 119.494 131.821 121.039 131.224 122.482C130.627 123.924 129.751 125.233 128.647 126.335C127.545 127.441 126.236 128.317 124.795 128.915C123.354 129.512 121.81 129.819 120.25 129.817H99.5083V140.029C99.5138 140.787 99.3001 141.53 98.8929 142.168C98.5089 142.763 97.9739 143.244 97.3427 143.564C96.7827 143.849 96.1633 143.999 95.5347 144C95.4578 143.999 95.381 143.996 95.3043 143.99Z" fill="#FBBF24"/>
<path fill-rule="evenodd" clip-rule="evenodd" d="M100.663 72.101C101.719 72.1184 102.649 72.8003 102.984 73.8027L110.22 95.4395C110.222 95.4453 110.224 95.4512 110.226 95.4571L113.955 105.803C114.422 107.098 113.752 108.527 112.458 108.995C111.163 109.462 109.736 108.791 109.269 107.496L106.132 98.7969H94.2907L90.8888 107.957C90.4094 109.248 88.9753 109.905 87.6856 109.425C86.396 108.946 85.7391 107.51 86.2185 106.219L90.2036 95.4891C90.2162 95.4525 90.2296 95.4163 90.2439 95.3805L98.2868 73.7253C98.6547 72.7345 99.6069 72.0836 100.663 72.101ZM96.1429 93.8098L100.499 82.082L104.42 93.8098H96.1429Z" fill="#1E293B"/>
<path d="M11.8739 90.1417C8.72509 90.1409 5.7055 88.8885 3.47891 86.66C1.25232 84.4314 0.000990612 81.409 1.63405e-08 78.2573V26.3509C-8.17891e-05 24.7901 0.306994 23.2446 0.903691 21.8026C1.50039 20.3607 2.37502 19.0505 3.47763 17.9469C4.58025 16.8433 5.88925 15.9679 7.32989 15.3707C8.77053 14.7736 10.3146 14.4663 11.8739 14.4664H44.8155L44.0514 4.25895C43.995 3.51094 44.152 2.7623 44.5041 2.10011C44.8562 1.43792 45.3889 0.889409 46.0402 0.518401C46.6916 0.147394 47.4348 -0.0308621 48.1834 0.00437325C48.932 0.0396086 49.6552 0.286886 50.2689 0.717437L69.888 14.4664H75.5749C78.7241 14.4663 81.7444 15.7183 83.9714 17.947C86.1984 20.1757 87.4497 23.1987 87.45 26.3509V78.2573C87.4495 81.4094 86.1982 84.4323 83.9712 86.661C81.7443 88.8897 78.7241 90.1417 75.5749 90.1417H11.8739Z" fill="#EF4444"/>
<path d="M11.8739 90.1411C8.72498 90.1403 5.70529 88.8878 3.47869 86.6591C1.25208 84.4304 0.000825572 81.4079 6.53552e-08 78.256V26.3502C-0.000163542 24.7894 0.306852 23.2439 0.903512 21.8018C1.50017 20.3598 2.37479 19.0495 3.47741 17.9459C4.58004 16.8422 5.88907 15.9668 7.32975 15.3695C8.77043 14.7723 10.3145 14.465 11.8739 14.4652H44.2644L44.0713 4.42041L59.4659 14.4652H63.6992C65.2585 14.4651 66.8027 14.7725 68.2434 15.3697C69.6841 15.9669 70.9932 16.8423 72.0959 17.946C73.1986 19.0496 74.0733 20.3598 74.6702 21.8018C75.267 23.2438 75.5742 24.7894 75.5743 26.3502V78.256C75.5744 79.817 75.2674 81.3626 74.6706 82.8047C74.0739 84.2469 73.1992 85.5572 72.0964 86.6609C70.9937 87.7645 69.6845 88.6399 68.2437 89.2371C66.8028 89.8342 65.2586 90.1414 63.6992 90.1411H11.8739Z" fill="#F87171"/>
<path fill-rule="evenodd" clip-rule="evenodd" d="M22.8669 44.101C22.8669 42.7238 23.9823 41.6074 25.3582 41.6074H61.7755C63.1513 41.6074 64.2667 42.7238 64.2667 44.101C64.2667 45.4782 63.1513 46.5946 61.7755 46.5946H25.3582C23.9823 46.5946 22.8669 45.4782 22.8669 44.101Z" fill="#1E293B"/>
<path fill-rule="evenodd" clip-rule="evenodd" d="M43.5658 31.3054C44.9417 31.3054 46.0571 32.4219 46.0571 33.7991V44.1004C46.0571 45.4776 44.9417 46.5941 43.5658 46.5941C42.19 46.5941 41.0746 45.4776 41.0746 44.1004V33.7991C41.0746 32.4219 42.19 31.3054 43.5658 31.3054Z" fill="#1E293B"/>
<path fill-rule="evenodd" clip-rule="evenodd" d="M35.5341 44.6351C35.5342 44.6354 35.5343 44.6357 35.5345 44.6359L35.5418 44.6516C35.5483 44.6655 35.5588 44.6878 35.5733 44.7183C35.6023 44.7793 35.6471 44.8728 35.7071 44.9956C35.827 45.2412 36.0075 45.6038 36.2433 46.0585C36.7156 46.9691 37.4071 48.2429 38.2771 49.6835C40.0323 52.5894 42.4333 56.0371 45.1467 58.5785C48.7993 61.8219 53.113 64.2313 57.7888 65.6397C59.1063 66.0366 59.8529 67.4273 59.4565 68.7461C59.06 70.0649 57.6706 70.8122 56.3531 70.4154C50.9742 68.7952 46.0127 66.021 41.8141 62.2859L41.7914 62.2658L41.7693 62.2451C38.5546 59.242 35.8665 55.3319 34.0134 52.2637C33.0769 50.7132 32.3329 49.3427 31.8214 48.3567C31.5654 47.8631 31.3668 47.4643 31.2308 47.1857C31.1627 47.0463 31.1103 46.9369 31.074 46.8606C31.0558 46.8224 31.0418 46.7925 31.0318 46.7712L31.0199 46.7459L31.0147 46.7346C31.0145 46.7342 31.0143 46.7338 33.2744 45.6849L31.0143 46.7338C30.4356 45.4844 30.9782 44.002 32.2264 43.4226C33.4744 42.8434 34.955 43.3863 35.5341 44.6351Z" fill="#1E293B"/>
<path fill-rule="evenodd" clip-rule="evenodd" d="M54.1606 43.4225C55.4088 44.0019 55.9515 45.4843 55.3727 46.7337L53.1126 45.6848C55.3727 46.7337 55.3725 46.7341 55.3723 46.7345L55.3707 46.7381L55.3671 46.7458L55.3552 46.7711C55.3453 46.7924 55.3312 46.8223 55.313 46.8605C55.2768 46.9368 55.2243 47.0462 55.1562 47.1856C55.0202 47.4642 54.8216 47.863 54.5656 48.3566C54.0541 49.3427 53.3101 50.7132 52.3736 52.2636C50.5205 55.3318 47.8324 59.242 44.6178 62.245L44.5956 62.2658L44.5729 62.2859C40.3743 66.021 35.4128 68.7952 30.0339 70.4154C28.7164 70.8122 27.327 70.0649 26.9305 68.7461C26.5341 67.4273 27.2807 66.0365 28.5982 65.6397C33.274 64.2313 37.5877 61.8218 41.2403 58.5784C43.9538 56.0371 46.3547 52.5894 48.1099 49.6834C48.9799 48.2428 49.6714 46.969 50.1437 46.0584C50.3796 45.6037 50.56 45.2411 50.68 44.9955C50.7399 44.8727 50.7847 44.7792 50.8137 44.7182C50.8282 44.6877 50.8387 44.6654 50.8452 44.6515L50.8526 44.6358C51.4315 43.3868 52.9126 42.8433 54.1606 43.4225Z" fill="#1E293B"/>
<path d="M242.048 13.72C243.84 13.72 245.248 15.128 245.248 16.92V109.08C245.248 110.872 243.84 112.28 242.048 112.28C240.256 112.28 238.848 110.872 238.848 109.08V98.84C234.368 106.904 225.024 112.28 213.888 112.28C196.608 112.28 183.168 98.328 183.168 80.152C183.168 61.848 196.48 47.896 213.888 47.896C224.896 47.896 234.24 53.272 238.848 61.208V16.92C238.848 15.128 240.256 13.72 242.048 13.72ZM214.528 106.264C229.12 106.264 238.848 95.768 238.848 80.152C238.848 64.408 229.12 53.912 214.528 53.912C200.32 53.912 189.824 65.048 189.824 80.024C189.824 95.128 200.448 106.264 214.528 106.264ZM295.269 47.896C311.525 47.896 323.173 59.672 323.173 75.928V77.464C323.173 80.152 321.893 81.688 319.205 81.688H270.949C271.717 95.896 282.213 106.264 296.421 106.264C303.589 106.264 310.501 103.32 315.237 98.328C316.133 97.432 316.773 97.048 317.669 97.048C319.333 97.048 320.485 98.328 320.485 99.992C320.485 101.016 320.101 101.784 318.949 102.936C312.805 109.08 305.125 112.28 296.421 112.28C278.245 112.28 264.293 98.2 264.293 80.152C264.293 61.976 277.989 47.896 295.269 47.896ZM295.269 53.784C282.725 53.784 272.997 63.128 271.205 75.8H316.645C316.773 63.128 308.069 53.784 295.269 53.784ZM388.035 47.896C389.699 47.896 391.235 49.304 391.235 51.096C391.235 51.608 391.107 52.12 390.851 52.504L364.611 110.232C363.971 111.512 362.947 112.28 361.667 112.28C360.259 112.28 359.235 111.512 358.595 110.232L332.483 52.632C332.227 52.12 332.099 51.608 332.099 51.096C332.099 49.304 333.635 47.896 335.299 47.896C336.707 47.896 337.859 48.792 338.499 50.072L361.667 102.04L384.835 50.072C385.475 48.792 386.499 47.896 388.035 47.896ZM436.332 105.752C437.996 105.752 439.276 106.776 439.276 108.44C439.276 109.976 438.38 111 436.588 111.384C434.156 112.024 431.596 112.28 428.78 112.28C416.62 112.28 409.836 105.624 409.836 93.72V55.064H401.772C400.108 55.064 398.7 53.784 398.7 52.12C398.7 50.456 400.108 49.176 401.772 49.176H409.836V34.072C409.836 32.152 411.372 30.744 413.164 30.744C414.956 30.744 416.364 32.28 416.364 34.072V49.176H433.644C435.308 49.176 436.716 50.456 436.716 52.12C436.716 53.784 435.308 55.064 433.644 55.064H416.364V93.464C416.364 102.168 420.716 106.392 429.804 106.392C433.004 106.392 434.924 105.752 436.332 105.752ZM481.936 48.664C483.856 48.664 485.264 49.816 485.264 51.736C485.264 53.528 483.856 54.808 481.936 54.808C469.52 54.808 460.304 63.512 460.304 75.416V109.08C460.304 110.872 458.896 112.28 457.104 112.28C455.312 112.28 453.904 110.872 453.904 109.08V51.096C453.904 49.304 455.312 47.896 457.104 47.896C458.896 47.896 460.304 49.304 460.304 51.096V59.672C464.784 52.76 472.336 48.664 481.936 48.664ZM518.14 47.896C532.604 47.896 541.308 56.984 541.308 72.216V109.08C541.308 110.872 539.9 112.28 538.108 112.28C536.316 112.28 534.78 110.872 534.78 109.08V101.784C530.3 108.312 522.492 112.28 513.02 112.28C500.348 112.28 491.772 105.496 491.772 95.512C491.772 85.4 500.22 79 513.276 79H534.78V71.96C534.78 60.568 528.508 53.912 517.756 53.912C511.228 53.912 505.724 56.6 500.732 62.232C499.836 63.128 499.068 63.512 498.044 63.512C496.508 63.512 495.1 62.232 495.1 60.824C495.1 59.928 495.484 59.032 496.508 57.88C502.14 51.224 509.564 47.896 518.14 47.896ZM513.66 106.648C525.436 106.648 534.78 98.328 534.78 87.96V84.504H513.916C503.932 84.504 498.428 88.472 498.428 95.384C498.428 102.168 504.444 106.648 513.66 106.648ZM590.01 47.896C603.834 47.896 612.666 57.24 612.666 71.96V109.08C612.666 110.872 611.258 112.28 609.466 112.28C607.674 112.28 606.266 110.872 606.266 109.08V72.344C606.266 61.208 599.354 53.912 588.986 53.912C578.362 53.912 570.554 61.592 570.554 72.344V109.08C570.554 110.872 569.146 112.28 567.354 112.28C565.562 112.28 564.154 110.872 564.154 109.08V51.096C564.154 49.304 565.562 47.896 567.354 47.896C569.146 47.896 570.554 49.304 570.554 51.096V57.112C574.778 51.352 581.562 47.896 590.01 47.896ZM653.193 112.28C643.209 112.28 635.273 107.288 630.409 100.632C629.897 99.992 629.513 99.224 629.513 98.456C629.513 96.792 631.049 95.256 632.713 95.256C633.609 95.256 634.505 95.64 635.145 96.408C640.009 102.552 645.769 106.264 653.193 106.264C660.617 106.264 667.145 102.68 667.145 95.384C667.145 88.472 661.385 86.04 654.473 82.968L648.841 80.536C640.521 76.952 633.609 72.856 633.609 64.024C633.609 53.656 642.953 47.896 653.321 47.896C661.641 47.896 667.913 51.608 672.137 56.472C672.905 57.24 673.289 58.136 673.289 58.776C673.289 60.44 672.009 61.848 670.473 61.848C669.577 61.848 668.809 61.464 667.657 60.44C663.817 56.344 658.953 53.912 652.937 53.912C646.409 53.912 640.393 56.856 640.393 63.64C640.393 69.4 644.873 71.704 652.041 74.776L657.801 77.336C667.273 81.432 673.801 85.912 673.801 95.128C673.801 106.52 663.945 112.28 653.193 112.28ZM696.979 112.28C695.187 112.28 693.779 110.872 693.779 109.08V16.92C693.779 15.128 695.187 13.72 696.979 13.72C698.771 13.72 700.179 15.128 700.179 16.92V109.08C700.179 110.872 698.899 112.28 696.979 112.28ZM744.765 47.896C759.229 47.896 767.933 56.984 767.933 72.216V109.08C767.933 110.872 766.525 112.28 764.733 112.28C762.941 112.28 761.405 110.872 761.405 109.08V101.784C756.925 108.312 749.117 112.28 739.645 112.28C726.973 112.28 718.397 105.496 718.397 95.512C718.397 85.4 726.845 79 739.901 79H761.405V71.96C761.405 60.568 755.133 53.912 744.381 53.912C737.853 53.912 732.349 56.6 727.357 62.232C726.461 63.128 725.693 63.512 724.669 63.512C723.133 63.512 721.725 62.232 721.725 60.824C721.725 59.928 722.109 59.032 723.133 57.88C728.765 51.224 736.189 47.896 744.765 47.896ZM740.285 106.648C752.061 106.648 761.405 98.328 761.405 87.96V84.504H740.541C730.557 84.504 725.053 88.472 725.053 95.384C725.053 102.168 731.069 106.648 740.285 106.648ZM819.707 105.752C821.371 105.752 822.651 106.776 822.651 108.44C822.651 109.976 821.755 111 819.963 111.384C817.531 112.024 814.971 112.28 812.155 112.28C799.995 112.28 793.211 105.624 793.211 93.72V55.064H785.147C783.483 55.064 782.075 53.784 782.075 52.12C782.075 50.456 783.483 49.176 785.147 49.176H793.211V34.072C793.211 32.152 794.747 30.744 796.539 30.744C798.331 30.744 799.739 32.28 799.739 34.072V49.176H817.019C818.683 49.176 820.091 50.456 820.091 52.12C820.091 53.784 818.683 55.064 817.019 55.064H799.739V93.464C799.739 102.168 804.091 106.392 813.179 106.392C816.379 106.392 818.299 105.752 819.707 105.752ZM862.269 47.896C878.525 47.896 890.173 59.672 890.173 75.928V77.464C890.173 80.152 888.893 81.688 886.205 81.688H837.949C838.717 95.896 849.213 106.264 863.421 106.264C870.589 106.264 877.501 103.32 882.237 98.328C883.133 97.432 883.773 97.048 884.669 97.048C886.333 97.048 887.485 98.328 887.485 99.992C887.485 101.016 887.101 101.784 885.949 102.936C879.805 109.08 872.125 112.28 863.421 112.28C845.245 112.28 831.293 98.2 831.293 80.152C831.293 61.976 844.989 47.896 862.269 47.896ZM862.269 53.784C849.725 53.784 839.997 63.128 838.205 75.8H883.645C883.773 63.128 875.069 53.784 862.269 53.784ZM897.257 128.024C895.465 128.024 894.057 126.616 894.057 124.952C894.057 124.184 894.313 123.672 894.569 123.16L959.465 12.568C960.105 11.544 961.257 11.032 962.409 11.032C964.201 11.032 965.609 12.44 965.609 14.104C965.609 14.872 965.481 15.384 965.097 15.896L900.201 126.488C899.561 127.512 898.409 128.024 897.257 128.024Z" fill="#1E293B"/>
<path d="M1003.75 112.536C986.468 112.536 974.436 100.504 974.436 83.096V54.936C974.436 49.944 978.148 46.232 983.14 46.232C988.004 46.232 991.716 49.944 991.716 54.936V84.504C991.716 91.544 996.708 96.664 1003.75 96.664C1010.66 96.664 1015.52 91.544 1015.52 84.504V54.936C1015.52 49.944 1019.11 46.232 1024.23 46.232C1029.09 46.232 1032.8 49.944 1032.8 54.936V83.096C1032.8 100.504 1020.77 112.536 1003.75 112.536ZM1058.03 14.104C1063.79 14.104 1068.78 18.712 1068.78 24.6C1068.78 30.36 1063.79 34.968 1058.03 34.968C1052.01 34.968 1047.15 30.36 1047.15 24.6C1047.15 18.712 1052.01 14.104 1058.03 14.104ZM1057.9 112.536C1053.04 112.536 1049.33 108.696 1049.33 103.704V54.936C1049.33 49.944 1053.04 46.232 1058.03 46.232C1062.89 46.232 1066.61 49.944 1066.61 54.936V103.704C1066.61 108.696 1062.89 112.536 1057.9 112.536Z" fill="#F87171"/>
</svg>
