<svg width="24" height="24" viewBox="0 0 24 24" fill="none" xmlns="http://www.w3.org/2000/svg">
<path d="M12.5 8C12.5 8.27614 12.2761 8.5 12 8.5C11.7239 8.5 11.5 8.27614 11.5 8C11.5 7.72386 11.7239 7.5 12 7.5C12.2761 7.5 12.5 7.72386 12.5 8Z" stroke="currentColor"/>
<path d="M12.5 12C12.5 12.2761 12.2761 12.5 12 12.5C11.7239 12.5 11.5 12.2761 11.5 12C11.5 11.7239 11.7239 11.5 12 11.5C12.2761 11.5 12.5 11.7239 12.5 12Z" stroke="currentColor"/>
<path d="M12.5 16C12.5 16.2761 12.2761 16.5 12 16.5C11.7239 16.5 11.5 16.2761 11.5 16C11.5 15.7239 11.7239 15.5 12 15.5C12.2761 15.5 12.5 15.7239 12.5 16Z" stroke="currentColor"/>
</svg>
