<svg width="24" height="24" viewBox="0 0 24 24" fill="none" xmlns="http://www.w3.org/2000/svg">
<path d="M9.25 17C9.25 18.2426 8.24264 19.25 7 19.25C5.75736 19.25 4.75 18.2426 4.75 17C4.75 15.7574 5.75736 14.75 7 14.75C8.24264 14.75 9.25 15.7574 9.25 17Z" stroke="currentColor" stroke-width="2" stroke-linecap="round" stroke-linejoin="round"/>
<path d="M9.25 17V6.75C9.25 5.64543 10.1454 4.75 11.25 4.75H17.25C18.3546 4.75 19.25 5.64543 19.25 6.75V14" stroke="currentColor" stroke-width="2" stroke-linecap="round" stroke-linejoin="round"/>
<path d="M19.25 14C19.25 15.2426 18.2426 16.25 17 16.25C15.7574 16.25 14.75 15.2426 14.75 14C14.75 12.7574 15.7574 11.75 17 11.75C18.2426 11.75 19.25 12.7574 19.25 14Z" stroke="currentColor" stroke-width="2" stroke-linecap="round" stroke-linejoin="round"/>
</svg>
