<svg width="24" height="24" viewBox="0 0 24 24" fill="none" xmlns="http://www.w3.org/2000/svg">
<path d="M10.9642 13.0357C9.9876 12.1045 9.4154 11.1011 9.12821 10.494C8.96726 10.1537 9.06043 9.76091 9.3266 9.49474L10.9642 7.85714L8.89277 4.75H6.09542C5.32985 4.75 4.69614 5.32802 4.7168 6.09331C4.77338 8.18879 5.3244 12.3245 8.49992 15.5M13.2968 14.8281C13.4111 14.8897 13.517 14.938 13.6116 14.9758C13.893 15.0882 14.196 14.9825 14.4103 14.7682L16.1428 13.0357L19.2499 15.1071V17.9045C19.2499 18.6701 18.6712 19.3038 17.9059 19.2831C16.324 19.2403 13.5801 18.9157 10.9642 17.3936" stroke="currentColor" stroke-width="2" stroke-linecap="round" stroke-linejoin="round"/>
<path d="M18.25 5.75L5.75 18.25" stroke="currentColor" stroke-width="2" stroke-linecap="round" stroke-linejoin="round"/>
</svg>
