<svg width="24" height="24" viewBox="0 0 24 24" fill="none" xmlns="http://www.w3.org/2000/svg">
<path d="M4.75 16L7.49619 12.5067C8.2749 11.5161 9.76453 11.4837 10.5856 12.4395L13 15.25M10.915 12.823C11.9875 11.4588 13.4962 9.50669 13.4962 9.50669C14.2749 8.51612 15.7645 8.48371 16.5856 9.43947L19 12.25M6.75 19.25H17.25C18.3546 19.25 19.25 18.3546 19.25 17.25V6.75C19.25 5.64543 18.3546 4.75 17.25 4.75H6.75C5.64543 4.75 4.75 5.64543 4.75 6.75V17.25C4.75 18.3546 5.64543 19.25 6.75 19.25Z" stroke="currentColor" stroke-width="2" stroke-linecap="round" stroke-linejoin="round"/>
</svg>
