<svg width="24" height="24" viewBox="0 0 24 24" fill="none" xmlns="http://www.w3.org/2000/svg">
<path d="M19.25 12C19.25 16.0041 16.0041 19.25 12 19.25C7.99594 19.25 4.75 16.0041 4.75 12C4.75 7.99594 7.99594 4.75 12 4.75C16.0041 4.75 19.25 7.99594 19.25 12Z" stroke="currentColor" stroke-width="2" stroke-linecap="round" stroke-linejoin="round"/>
<path d="M16.25 12C16.25 14.3472 14.3472 16.25 12 16.25C9.65279 16.25 7.75 14.3472 7.75 12C7.75 9.65279 9.65279 7.75 12 7.75C14.3472 7.75 16.25 9.65279 16.25 12Z" stroke="currentColor" stroke-width="2" stroke-linecap="round" stroke-linejoin="round"/>
<path d="M13.25 12C13.25 12.6904 12.6904 13.25 12 13.25C11.3096 13.25 10.75 12.6904 10.75 12C10.75 11.3096 11.3096 10.75 12 10.75C12.6904 10.75 13.25 11.3096 13.25 12Z" stroke="currentColor" stroke-width="2" stroke-linecap="round" stroke-linejoin="round"/>
</svg>
