<svg width="24" height="24" viewBox="0 0 24 24" fill="none" xmlns="http://www.w3.org/2000/svg">
<path d="M4.36719 5.82593C4.74076 5.67124 5.17106 5.75689 5.45703 6.04272L17.957 18.5427C18.3475 18.9332 18.3474 19.5662 17.957 19.9568C17.5665 20.3473 16.9335 20.3473 16.543 19.9568L14.8359 18.2498H6.75C5.09315 18.2498 3.75 16.9066 3.75 15.2498V6.74976C3.75013 6.34547 3.99369 5.9807 4.36719 5.82593ZM13.25 5.74976C14.7567 5.74976 16.0031 6.86099 16.2168 8.30835L18.7598 6.87866C19.0693 6.7046 19.4483 6.70723 19.7549 6.88647C20.0615 7.06577 20.2499 7.39462 20.25 7.74976V16.2498C20.25 16.605 20.0615 16.9337 19.7549 17.113C19.4482 17.2924 19.0694 17.295 18.7598 17.1208L14.7598 14.8708C14.4451 14.6937 14.25 14.3609 14.25 13.9998V8.74976C14.2498 8.19762 13.8022 7.74976 13.25 7.74976H9.75C9.19772 7.74976 8.75 7.30204 8.75 6.74976C8.75018 6.19762 9.19782 5.74976 9.75 5.74976H13.25ZM5.75 15.2498C5.75 15.802 6.19772 16.2498 6.75 16.2498H12.8359L5.75 9.16382V15.2498ZM16.25 10.5837V13.4148L18.25 14.5398V9.45874L16.25 10.5837Z" fill="currentColor"/>
</svg>
