<svg width="24" height="24" viewBox="0 0 24 24" fill="none" xmlns="http://www.w3.org/2000/svg">
<path d="M12.5 18C12.5 18.2761 12.2761 18.5 12 18.5C11.7239 18.5 11.5 18.2761 11.5 18C11.5 17.7239 11.7239 17.5 12 17.5C12.2761 17.5 12.5 17.7239 12.5 18Z" stroke="currentColor"/>
<path d="M9.5 14.5627C10.2016 14.0516 11.0656 13.75 12 13.75C12.9344 13.75 13.7984 14.0516 14.5 14.5627" stroke="currentColor" stroke-width="2" stroke-linecap="round" stroke-linejoin="round"/>
<path d="M7.2876 11.2277C8.19156 10.5975 9.22762 10.1436 10.3459 9.91602M14.1794 10.041C15.0976 10.2918 15.952 10.6973 16.7128 11.2277" stroke="currentColor" stroke-width="2" stroke-linecap="round" stroke-linejoin="round"/>
<path d="M4.75 8.25C6.73421 6.86597 9 5.75 12 5.75C12.6875 5.75 13.3364 5.8086 13.9522 5.9156M17.3354 7.07854C18.0087 7.42768 18.6425 7.82628 19.25 8.25" stroke="currentColor" stroke-width="2" stroke-linecap="round" stroke-linejoin="round"/>
<path d="M18.25 5.75L6.75 17.25" stroke="currentColor" stroke-width="2" stroke-linecap="round" stroke-linejoin="round"/>
</svg>
