<svg width="24" height="24" viewBox="0 0 24 24" fill="none" xmlns="http://www.w3.org/2000/svg">
<path d="M12.5 18C12.5 18.2761 12.2761 18.5 12 18.5C11.7239 18.5 11.5 18.2761 11.5 18C11.5 17.7239 11.7239 17.5 12 17.5C12.2761 17.5 12.5 17.7239 12.5 18Z" stroke="currentColor"/>
<path d="M9.5 14.5627C10.2016 14.0516 11.0656 13.75 12 13.75C12.9344 13.75 13.7984 14.0516 14.5 14.5627" stroke="currentColor" stroke-width="2" stroke-linecap="round" stroke-linejoin="round"/>
<path d="M16.7128 11.2276C15.3768 10.2962 13.7523 9.75 12.0002 9.75C10.2481 9.75 8.62358 10.2962 7.2876 11.2276" stroke="currentColor" stroke-width="2" stroke-linecap="round" stroke-linejoin="round"/>
<path d="M5 7.94571C6.98421 6.56168 9.39732 5.75 12 5.75C14.6027 5.75 17.0158 6.56168 19 7.94571" stroke="currentColor" stroke-width="2" stroke-linecap="round" stroke-linejoin="round"/>
</svg>
