<svg width="1054" height="144" viewBox="0 0 1054 144" fill="none" xmlns="http://www.w3.org/2000/svg">
<path d="M132.125 129.817H120.273C121.853 129.817 123.417 129.5 124.872 128.884C126.283 128.287 127.565 127.422 128.647 126.337C129.732 125.254 130.596 123.971 131.193 122.559C131.811 121.095 132.128 119.522 132.125 117.933V65.6404C132.128 64.0514 131.811 62.4782 131.193 61.0148C130.596 59.6026 129.732 58.3196 128.647 57.237C127.545 56.1318 126.236 55.2553 124.795 54.6579C123.354 54.0605 121.81 53.754 120.25 53.756H132.125C133.713 53.7528 135.285 54.0702 136.747 54.6892C138.158 55.2861 139.44 56.1511 140.522 57.2364C141.606 58.3191 142.47 59.602 143.067 61.0142C143.686 62.4777 144.003 64.0512 144 65.6404V117.933C144.003 119.521 143.686 121.095 143.067 122.558C142.471 123.97 141.607 125.253 140.522 126.335C139.42 127.441 138.111 128.317 136.67 128.915C135.229 129.512 133.685 129.819 132.125 129.817Z" fill="#F59E0B"/>
<path d="M95.3043 143.99C94.55 143.943 93.8254 143.678 93.2179 143.228L74.8512 129.817H67.999C66.4117 129.819 64.8402 129.502 63.3778 128.884C61.9676 128.286 60.6859 127.421 59.6029 126.337C58.4987 125.234 57.6229 123.924 57.026 122.482C56.429 121.04 56.1227 119.494 56.1245 117.933V65.6404C56.1224 64.0515 56.4394 62.4785 57.0569 61.0148C57.6546 59.6033 58.5189 58.3206 59.6023 57.237C60.704 56.1317 62.0129 55.2552 63.454 54.6577C64.8951 54.0602 66.4399 53.7536 67.9997 53.7553L120.25 53.756C121.837 53.754 123.409 54.0709 124.872 54.6892C127.719 55.8964 129.986 58.1652 131.193 61.0148C131.81 62.4787 132.127 64.0513 132.125 65.6404V117.933C132.127 119.494 131.821 121.039 131.224 122.482C130.627 123.924 129.751 125.233 128.647 126.335C127.545 127.441 126.236 128.317 124.795 128.915C123.354 129.512 121.81 129.819 120.25 129.817H99.5083V140.029C99.5138 140.787 99.3001 141.53 98.8929 142.168C98.5089 142.763 97.9739 143.244 97.3427 143.564C96.7827 143.849 96.1633 143.999 95.5347 144C95.4578 143.999 95.381 143.996 95.3043 143.99Z" fill="#FBBF24"/>
<path d="M11.8739 90.1417C8.72509 90.1409 5.7055 88.8885 3.47891 86.66C1.25232 84.4314 0.000990612 81.409 1.63405e-08 78.2573V26.3509C-8.17891e-05 24.7901 0.306994 23.2446 0.903691 21.8026C1.50039 20.3607 2.37502 19.0505 3.47763 17.9469C4.58025 16.8433 5.88925 15.9679 7.32989 15.3707C8.77053 14.7736 10.3146 14.4663 11.8739 14.4664H44.8155L44.0514 4.25895C43.995 3.51094 44.152 2.7623 44.5041 2.10011C44.8562 1.43792 45.3889 0.889409 46.0402 0.518401C46.6916 0.147394 47.4348 -0.0308621 48.1834 0.00437325C48.932 0.0396086 49.6552 0.286886 50.2689 0.717437L69.888 14.4664H75.5749C78.7241 14.4663 81.7444 15.7183 83.9714 17.947C86.1984 20.1757 87.4497 23.1987 87.45 26.3509V78.2573C87.4495 81.4094 86.1982 84.4323 83.9712 86.661C81.7443 88.8897 78.7241 90.1417 75.5749 90.1417H11.8739Z" fill="#EF4444"/>
<path d="M11.8739 90.1417C8.72509 90.1409 5.7055 88.8885 3.47891 86.66C1.2523 84.4313 0.000825572 81.4079 6.53551e-08 78.256L1.63405e-08 26.3509C-8.17891e-05 24.7901 0.306994 23.2446 0.903691 21.8026C1.50035 20.3606 2.37479 19.0495 3.47741 17.9459C4.58004 16.8422 5.88907 15.9668 7.32975 15.3695C8.77043 14.7723 10.3145 14.465 11.8739 14.4652H44.2644L44.0713 4.42041L59.4659 14.4652H63.6992C65.2585 14.4651 66.8027 14.7725 68.2434 15.3697C69.6841 15.9669 70.9932 16.8423 72.0959 17.946C73.1986 19.0496 74.0733 20.3598 74.6702 21.8018C75.267 23.2438 75.5742 24.7894 75.5743 26.3502V78.256C75.5744 79.817 75.2674 81.3626 74.6706 82.8047C74.0739 84.2469 73.1992 85.5572 72.0964 86.6609C70.9937 87.7645 69.6845 88.6399 68.2437 89.2371C66.8028 89.8342 65.2586 90.1414 63.6992 90.1411L11.8739 90.1417Z" fill="#F87171"/>
<path d="M65.3994 44.7273C65.3994 46.6558 63.8372 48.2214 61.9082 48.2214L43.6989 48.2212L25.4912 48.2214C23.5622 48.2214 22 46.6558 22 44.7273C22.0002 42.7989 23.5623 41.2341 25.4912 41.2341H61.9082C63.8371 41.2341 65.3992 42.7989 65.3994 44.7273Z" fill="#1E293B"/>
<path d="M47.1901 44.727C47.1901 46.6556 45.6279 48.2212 43.6989 48.2212C41.7698 48.2211 40.2076 46.6556 40.2076 44.727V34.4262C40.2076 32.4977 41.7698 30.9321 43.6989 30.9321C45.6279 30.9321 47.1901 32.4977 47.1901 34.4262V44.727Z" fill="#1E293B"/>
<path d="M31.9381 43.1426C33.6329 42.356 35.6338 43.0455 36.4948 44.6797L36.5748 44.8408L36.5807 44.8545C36.5865 44.8669 36.5964 44.8875 36.61 44.916C36.6375 44.974 36.6807 45.0643 36.7389 45.1836C36.8556 45.4226 37.0325 45.7778 37.2643 46.2246C37.7287 47.12 38.4095 48.3745 39.2662 49.793C40.9984 52.6609 43.3364 56.0091 45.944 58.457L46.6158 59.0381C50.0125 61.893 53.9574 64.0275 58.2106 65.3086C60.0573 65.865 61.1026 67.8145 60.5475 69.6611C59.9921 71.508 58.0449 72.5562 56.1979 72C50.6799 70.3379 45.59 67.4917 41.2828 63.6602L41.2594 63.6396L41.2506 63.6318L41.2418 63.623L41.2194 63.6025C37.9061 60.5073 35.1625 56.5064 33.2906 53.4072C32.3409 51.8348 31.5864 50.4446 31.067 49.4434C30.9179 49.156 30.7884 48.8996 30.6783 48.6797L30.6608 48.6885L30.2399 47.7812C29.4294 46.0317 30.189 43.9547 31.9381 43.1426Z" fill="#1E293B"/>
<path d="M50.0793 44.8389C50.8912 43.0915 52.9661 42.3308 54.7151 43.1426C56.4096 43.9294 57.1754 45.903 56.4846 47.6162L56.4133 47.7812L56.4104 47.7861L56.4065 47.7949L56.4055 47.7959L56.3938 47.8213C56.3831 47.844 56.3677 47.8764 56.3489 47.916C56.3111 47.9954 56.2574 48.1083 56.1877 48.251C56.0485 48.5362 55.8462 48.9421 55.5862 49.4434C55.0668 50.4446 54.3123 51.8348 53.3625 53.4072C51.4907 56.5064 48.7471 60.5073 45.4338 63.6025L45.4114 63.623L45.4026 63.6318L45.3928 63.6396L45.3704 63.6602C41.0632 67.4917 35.9733 70.3379 30.4553 72C28.6082 72.5563 26.6611 71.508 26.1057 69.6611C25.5506 67.8144 26.5959 65.8649 28.4426 65.3086C32.9794 63.9421 37.1651 61.6041 40.7092 58.457C43.3168 56.0091 45.6548 52.6609 47.387 49.793C48.2437 48.3745 48.9245 47.12 49.3889 46.2246C49.6207 45.7778 49.7976 45.4226 49.9143 45.1836C49.9725 45.0644 50.0157 44.974 50.0432 44.916C50.0569 44.8871 50.0667 44.8658 50.0725 44.8535L50.0793 44.8389Z" fill="#1E293B"/>
<path d="M97.5421 74.9492C98.8325 72.1738 102.848 72.2151 104.081 75.0166L104.195 75.3057L111.603 96.54L115.103 106.54C115.741 108.365 114.78 110.361 112.955 111C111.131 111.639 109.134 110.677 108.495 108.853L105.816 101.196H95.1691L92.0489 108.996C91.3311 110.791 89.2938 111.664 87.4991 110.946C85.7045 110.228 84.8312 108.191 85.5489 106.396L89.5362 96.4258L97.422 75.2353L97.5421 74.9492ZM97.8361 94.1963H103.371L100.692 86.5176L97.8361 94.1963Z" fill="#1E293B"/>
<path d="M97.5421 74.9492C98.8325 72.1738 102.848 72.2151 104.081 75.0166L104.195 75.3057L111.603 96.54L115.103 106.54C115.741 108.365 114.78 110.361 112.955 111C111.131 111.639 109.134 110.677 108.495 108.853L105.816 101.196H95.1691L92.0489 108.996C91.3311 110.791 89.2938 111.664 87.4991 110.946C85.7045 110.228 84.8312 108.191 85.5489 106.396L89.5362 96.4258L97.422 75.2353L97.5421 74.9492ZM97.8361 94.1963H103.371L100.692 86.5176L97.8361 94.1963Z" fill="#1E293B"/>
<path d="M203.52 117.318C198.059 117.318 193.237 115.996 189.056 113.35C184.96 110.705 181.76 106.95 179.456 102.086C177.152 97.1371 176 91.3344 176 84.6784C176 77.9371 177.152 72.1771 179.456 67.3984C181.76 62.5344 184.96 58.7797 189.056 56.1344C193.237 53.4891 198.059 52.1664 203.52 52.1664C208.725 52.1664 213.248 53.4464 217.088 56.0064C221.013 58.5664 223.659 61.9371 225.024 66.1184H223.616V32.8384C223.616 30.1931 224.299 28.1877 225.664 26.8224C227.029 25.4571 228.992 24.7744 231.552 24.7744C234.112 24.7744 236.075 25.4571 237.44 26.8224C238.891 28.1877 239.616 30.1931 239.616 32.8384V108.87C239.616 111.516 238.933 113.564 237.568 115.014C236.203 116.38 234.24 117.062 231.68 117.062C229.12 117.062 227.157 116.38 225.792 115.014C224.427 113.564 223.744 111.516 223.744 108.87V98.8864L225.152 102.726C223.872 107.164 221.269 110.705 217.344 113.35C213.419 115.996 208.811 117.318 203.52 117.318ZM208 105.158C211.157 105.158 213.931 104.39 216.32 102.854C218.709 101.318 220.544 99.0571 221.824 96.0704C223.189 92.9984 223.872 89.2011 223.872 84.6784C223.872 77.8517 222.421 72.7744 219.52 69.4464C216.619 66.0331 212.779 64.3264 208 64.3264C204.843 64.3264 202.069 65.0944 199.68 66.6304C197.291 68.0811 195.413 70.3424 194.048 73.4144C192.768 76.4011 192.128 80.1557 192.128 84.6784C192.128 91.4197 193.579 96.5397 196.48 100.038C199.381 103.452 203.221 105.158 208 105.158Z" fill="#1E293B"/>
<path d="M287.054 117.318C279.971 117.318 273.87 115.996 268.75 113.35C263.63 110.705 259.662 106.95 256.846 102.086C254.115 97.2224 252.75 91.4624 252.75 84.8064C252.75 78.3211 254.073 72.6464 256.718 67.7824C259.449 62.9184 263.161 59.1211 267.854 56.3904C272.633 53.5744 278.051 52.1664 284.11 52.1664C288.547 52.1664 292.515 52.8917 296.014 54.3424C299.598 55.7931 302.627 57.8837 305.102 60.6144C307.662 63.3451 309.582 66.6731 310.862 70.5984C312.227 74.4384 312.91 78.7904 312.91 83.6544C312.91 85.1904 312.355 86.3851 311.246 87.2384C310.222 88.0064 308.729 88.3904 306.766 88.3904H265.678V79.1744H301.646L299.598 81.0944C299.598 77.1691 299.001 73.8837 297.806 71.2384C296.697 68.5931 295.033 66.5877 292.814 65.2224C290.681 63.7717 287.993 63.0464 284.75 63.0464C281.166 63.0464 278.094 63.8997 275.534 65.6064C273.059 67.2277 271.139 69.5744 269.774 72.6464C268.494 75.6331 267.854 79.2171 267.854 83.3984V84.2944C267.854 91.2917 269.475 96.5397 272.718 100.038C276.046 103.452 280.91 105.158 287.31 105.158C289.529 105.158 292.003 104.902 294.734 104.39C297.55 103.793 300.195 102.812 302.67 101.446C304.462 100.422 306.041 99.9957 307.406 100.166C308.771 100.252 309.838 100.721 310.606 101.574C311.459 102.428 311.971 103.494 312.142 104.774C312.313 105.969 312.057 107.206 311.374 108.486C310.777 109.766 309.71 110.876 308.174 111.814C305.187 113.692 301.731 115.1 297.806 116.038C293.966 116.892 290.382 117.318 287.054 117.318Z" fill="#1E293B"/>
<path d="M349.925 117.062C347.792 117.062 345.914 116.508 344.293 115.398C342.757 114.289 341.477 112.582 340.453 110.278L320.101 63.0464C319.333 61.1691 319.034 59.4197 319.205 57.7984C319.461 56.1771 320.229 54.8971 321.509 53.9584C322.874 52.9344 324.709 52.4224 327.013 52.4224C328.976 52.4224 330.554 52.8917 331.749 53.8304C332.944 54.6837 334.01 56.3477 334.949 58.8224L352.229 101.958H348.389L366.181 58.6944C367.12 56.3051 368.186 54.6837 369.381 53.8304C370.661 52.8917 372.368 52.4224 374.501 52.4224C376.378 52.4224 377.872 52.9344 378.981 53.9584C380.09 54.8971 380.773 56.1771 381.029 57.7984C381.285 59.3344 380.986 61.0411 380.133 62.9184L359.397 110.278C358.458 112.582 357.178 114.289 355.557 115.398C354.021 116.508 352.144 117.062 349.925 117.062Z" fill="#1E293B"/>
<path d="M422.628 117.318C417.081 117.318 412.431 116.38 408.676 114.502C405.007 112.625 402.276 109.894 400.484 106.31C398.692 102.641 397.796 98.1184 397.796 92.7424V65.4784H391.14C389.092 65.4784 387.513 64.9664 386.404 63.9424C385.295 62.8331 384.74 61.3397 384.74 59.4624C384.74 57.4997 385.295 56.0064 386.404 54.9824C387.513 53.9584 389.092 53.4464 391.14 53.4464H397.796V41.7984C397.796 39.1531 398.479 37.1477 399.844 35.7824C401.295 34.4171 403.3 33.7344 405.86 33.7344C408.42 33.7344 410.383 34.4171 411.748 35.7824C413.113 37.1477 413.796 39.1531 413.796 41.7984V53.4464H427.364C429.412 53.4464 430.991 53.9584 432.1 54.9824C433.209 56.0064 433.764 57.4997 433.764 59.4624C433.764 61.3397 433.209 62.8331 432.1 63.9424C430.991 64.9664 429.412 65.4784 427.364 65.4784H413.796V91.8464C413.796 95.9424 414.692 99.0144 416.484 101.062C418.276 103.11 421.177 104.134 425.188 104.134C426.639 104.134 427.919 104.006 429.028 103.75C430.137 103.494 431.119 103.324 431.972 103.238C432.996 103.153 433.849 103.494 434.532 104.262C435.215 104.945 435.556 106.396 435.556 108.614C435.556 110.321 435.257 111.857 434.66 113.222C434.148 114.502 433.167 115.398 431.716 115.91C430.607 116.252 429.156 116.55 427.364 116.806C425.572 117.148 423.993 117.318 422.628 117.318Z" fill="#1E293B"/>
<path d="M451.273 117.062C448.628 117.062 446.58 116.38 445.129 115.014C443.764 113.564 443.081 111.516 443.081 108.87V60.4864C443.081 57.8411 443.764 55.8357 445.129 54.4704C446.494 53.1051 448.414 52.4224 450.889 52.4224C453.364 52.4224 455.284 53.1051 456.649 54.4704C458.014 55.8357 458.697 57.8411 458.697 60.4864V68.5504H457.417C458.612 63.4304 460.958 59.5477 464.457 56.9024C467.956 54.2571 472.606 52.6784 478.409 52.1664C480.201 51.9957 481.609 52.4651 482.633 53.5744C483.742 54.5984 484.382 56.2197 484.553 58.4384C484.724 60.5717 484.212 62.3211 483.017 63.6864C481.908 64.9664 480.201 65.7344 477.897 65.9904L475.081 66.2464C469.876 66.7584 465.95 68.3797 463.305 71.1104C460.66 73.7557 459.337 77.5104 459.337 82.3744V108.87C459.337 111.516 458.654 113.564 457.289 115.014C455.924 116.38 453.918 117.062 451.273 117.062Z" fill="#1E293B"/>
<path d="M513.189 117.318C508.666 117.318 504.613 116.465 501.029 114.758C497.53 112.966 494.757 110.577 492.709 107.59C490.746 104.604 489.765 101.233 489.765 97.4784C489.765 92.8704 490.96 89.2437 493.349 86.5984C495.738 83.8677 499.621 81.9051 504.997 80.7104C510.373 79.5157 517.584 78.9184 526.629 78.9184H533.029V88.1344H526.757C521.466 88.1344 517.242 88.3904 514.085 88.9024C510.928 89.4144 508.666 90.3104 507.301 91.5904C506.021 92.7851 505.381 94.4917 505.381 96.7104C505.381 99.5264 506.362 101.83 508.325 103.622C510.288 105.414 513.018 106.31 516.517 106.31C519.333 106.31 521.808 105.67 523.941 104.39C526.16 103.025 527.909 101.19 529.189 98.8864C530.469 96.5824 531.109 93.9371 531.109 90.9504V76.2304C531.109 71.9637 530.17 68.8917 528.293 67.0144C526.416 65.1371 523.258 64.1984 518.821 64.1984C516.346 64.1984 513.658 64.4971 510.757 65.0944C507.941 65.6917 504.954 66.7157 501.797 68.1664C500.176 68.9344 498.725 69.1477 497.445 68.8064C496.25 68.4651 495.312 67.7824 494.629 66.7584C493.946 65.6491 493.605 64.4544 493.605 63.1744C493.605 61.8944 493.946 60.6571 494.629 59.4624C495.312 58.1824 496.464 57.2437 498.085 56.6464C502.01 55.0251 505.765 53.8731 509.349 53.1904C513.018 52.5077 516.346 52.1664 519.333 52.1664C525.477 52.1664 530.512 53.1051 534.437 54.9824C538.448 56.8597 541.434 59.7184 543.397 63.5584C545.36 67.3131 546.341 72.1771 546.341 78.1504V108.87C546.341 111.516 545.701 113.564 544.421 115.014C543.141 116.38 541.306 117.062 538.917 117.062C536.528 117.062 534.65 116.38 533.285 115.014C532.005 113.564 531.365 111.516 531.365 108.87V102.726H532.389C531.792 105.713 530.597 108.316 528.805 110.534C527.098 112.668 524.922 114.332 522.277 115.526C519.632 116.721 516.602 117.318 513.189 117.318Z" fill="#1E293B"/>
<path d="M570.517 117.062C567.957 117.062 565.994 116.38 564.629 115.014C563.264 113.564 562.581 111.516 562.581 108.87V60.4864C562.581 57.8411 563.264 55.8357 564.629 54.4704C565.994 53.1051 567.914 52.4224 570.389 52.4224C572.864 52.4224 574.784 53.1051 576.149 54.4704C577.514 55.8357 578.197 57.8411 578.197 60.4864V69.1904L576.789 65.9904C578.666 61.4677 581.568 58.0544 585.493 55.7504C589.504 53.3611 594.026 52.1664 599.061 52.1664C604.096 52.1664 608.234 53.1051 611.477 54.9824C614.72 56.8597 617.152 59.7184 618.773 63.5584C620.394 67.3131 621.205 72.0917 621.205 77.8944V108.87C621.205 111.516 620.522 113.564 619.157 115.014C617.792 116.38 615.829 117.062 613.269 117.062C610.709 117.062 608.704 116.38 607.253 115.014C605.888 113.564 605.205 111.516 605.205 108.87V78.6624C605.205 73.7984 604.266 70.2571 602.389 68.0384C600.597 65.8197 597.781 64.7104 593.941 64.7104C589.248 64.7104 585.493 66.2037 582.677 69.1904C579.946 72.0917 578.581 75.9744 578.581 80.8384V108.87C578.581 114.332 575.893 117.062 570.517 117.062Z" fill="#1E293B"/>
<path d="M660.368 117.318C656.699 117.318 652.816 116.934 648.72 116.166C644.624 115.398 640.955 114.076 637.712 112.198C636.347 111.345 635.365 110.364 634.768 109.254C634.256 108.06 634.043 106.908 634.128 105.798C634.299 104.604 634.725 103.58 635.408 102.726C636.176 101.873 637.115 101.318 638.224 101.062C639.419 100.806 640.699 101.02 642.064 101.702C645.477 103.324 648.677 104.476 651.664 105.158C654.651 105.756 657.595 106.054 660.496 106.054C664.592 106.054 667.621 105.372 669.584 104.006C671.632 102.556 672.656 100.678 672.656 98.3744C672.656 96.4117 671.973 94.9184 670.608 93.8944C669.328 92.7851 667.365 91.9744 664.72 91.4624L651.92 89.0304C646.629 88.0064 642.576 86.0864 639.76 83.2704C637.029 80.3691 635.664 76.6571 635.664 72.1344C635.664 68.0384 636.773 64.4971 638.992 61.5104C641.296 58.5237 644.453 56.2197 648.464 54.5984C652.475 52.9771 657.083 52.1664 662.288 52.1664C666.043 52.1664 669.541 52.5931 672.784 53.4464C676.112 54.2144 679.312 55.4517 682.384 57.1584C683.664 57.8411 684.517 58.7371 684.944 59.8464C685.456 60.9557 685.584 62.1077 685.328 63.3024C685.072 64.4117 684.56 65.4357 683.792 66.3744C683.024 67.2277 682.043 67.7824 680.848 68.0384C679.739 68.2091 678.459 67.9531 677.008 67.2704C674.363 65.9051 671.803 64.9237 669.328 64.3264C666.939 63.7291 664.635 63.4304 662.416 63.4304C658.235 63.4304 655.12 64.1557 653.072 65.6064C651.109 67.0571 650.128 68.9771 650.128 71.3664C650.128 73.1584 650.725 74.6517 651.92 75.8464C653.115 77.0411 654.949 77.8517 657.424 78.2784L670.224 80.7104C675.771 81.7344 679.952 83.6117 682.768 86.3424C685.669 89.0731 687.12 92.7424 687.12 97.3504C687.12 103.58 684.688 108.486 679.824 112.07C674.96 115.569 668.475 117.318 660.368 117.318Z" fill="#1E293B"/>
<path d="M721.332 117.318C714.249 117.318 708.916 115.313 705.332 111.302C701.748 107.206 699.956 101.233 699.956 93.3824V32.8384C699.956 30.1931 700.639 28.1877 702.004 26.8224C703.369 25.4571 705.332 24.7744 707.892 24.7744C710.452 24.7744 712.415 25.4571 713.78 26.8224C715.231 28.1877 715.956 30.1931 715.956 32.8384V92.6144C715.956 96.5397 716.767 99.4411 718.388 101.318C720.095 103.196 722.484 104.134 725.556 104.134C726.239 104.134 726.879 104.134 727.476 104.134C728.073 104.049 728.671 103.964 729.268 103.878C730.463 103.708 731.273 104.049 731.7 104.902C732.127 105.67 732.34 107.292 732.34 109.766C732.34 111.9 731.913 113.564 731.06 114.758C730.207 115.953 728.799 116.678 726.836 116.934C725.983 117.02 725.087 117.105 724.148 117.19C723.209 117.276 722.271 117.318 721.332 117.318Z" fill="#1E293B"/>
<path d="M761.439 117.318C756.916 117.318 752.863 116.465 749.279 114.758C745.78 112.966 743.007 110.577 740.959 107.59C738.996 104.604 738.015 101.233 738.015 97.4784C738.015 92.8704 739.21 89.2437 741.599 86.5984C743.988 83.8677 747.871 81.9051 753.247 80.7104C758.623 79.5157 765.834 78.9184 774.879 78.9184H781.279V88.1344H775.007C769.716 88.1344 765.492 88.3904 762.335 88.9024C759.178 89.4144 756.916 90.3104 755.551 91.5904C754.271 92.7851 753.631 94.4917 753.631 96.7104C753.631 99.5264 754.612 101.83 756.575 103.622C758.538 105.414 761.268 106.31 764.767 106.31C767.583 106.31 770.058 105.67 772.191 104.39C774.41 103.025 776.159 101.19 777.439 98.8864C778.719 96.5824 779.359 93.9371 779.359 90.9504V76.2304C779.359 71.9637 778.42 68.8917 776.543 67.0144C774.666 65.1371 771.508 64.1984 767.071 64.1984C764.596 64.1984 761.908 64.4971 759.007 65.0944C756.191 65.6917 753.204 66.7157 750.047 68.1664C748.426 68.9344 746.975 69.1477 745.695 68.8064C744.5 68.4651 743.562 67.7824 742.879 66.7584C742.196 65.6491 741.855 64.4544 741.855 63.1744C741.855 61.8944 742.196 60.6571 742.879 59.4624C743.562 58.1824 744.714 57.2437 746.335 56.6464C750.26 55.0251 754.015 53.8731 757.599 53.1904C761.268 52.5077 764.596 52.1664 767.583 52.1664C773.727 52.1664 778.762 53.1051 782.687 54.9824C786.698 56.8597 789.684 59.7184 791.647 63.5584C793.61 67.3131 794.591 72.1771 794.591 78.1504V108.87C794.591 111.516 793.951 113.564 792.671 115.014C791.391 116.38 789.556 117.062 787.167 117.062C784.778 117.062 782.9 116.38 781.535 115.014C780.255 113.564 779.615 111.516 779.615 108.87V102.726H780.639C780.042 105.713 778.847 108.316 777.055 110.534C775.348 112.668 773.172 114.332 770.527 115.526C767.882 116.721 764.852 117.318 761.439 117.318Z" fill="#1E293B"/>
<path d="M839.503 117.318C833.956 117.318 829.306 116.38 825.551 114.502C821.882 112.625 819.151 109.894 817.359 106.31C815.567 102.641 814.671 98.1184 814.671 92.7424V65.4784H808.015C805.967 65.4784 804.388 64.9664 803.279 63.9424C802.17 62.8331 801.615 61.3397 801.615 59.4624C801.615 57.4997 802.17 56.0064 803.279 54.9824C804.388 53.9584 805.967 53.4464 808.015 53.4464H814.671V41.7984C814.671 39.1531 815.354 37.1477 816.719 35.7824C818.17 34.4171 820.175 33.7344 822.735 33.7344C825.295 33.7344 827.258 34.4171 828.623 35.7824C829.988 37.1477 830.671 39.1531 830.671 41.7984V53.4464H844.239C846.287 53.4464 847.866 53.9584 848.975 54.9824C850.084 56.0064 850.639 57.4997 850.639 59.4624C850.639 61.3397 850.084 62.8331 848.975 63.9424C847.866 64.9664 846.287 65.4784 844.239 65.4784H830.671V91.8464C830.671 95.9424 831.567 99.0144 833.359 101.062C835.151 103.11 838.052 104.134 842.063 104.134C843.514 104.134 844.794 104.006 845.903 103.75C847.012 103.494 847.994 103.324 848.847 103.238C849.871 103.153 850.724 103.494 851.407 104.262C852.09 104.945 852.431 106.396 852.431 108.614C852.431 110.321 852.132 111.857 851.535 113.222C851.023 114.502 850.042 115.398 848.591 115.91C847.482 116.252 846.031 116.55 844.239 116.806C842.447 117.148 840.868 117.318 839.503 117.318Z" fill="#1E293B"/>
<path d="M890.179 117.318C883.096 117.318 876.995 115.996 871.875 113.35C866.755 110.705 862.787 106.95 859.971 102.086C857.24 97.2224 855.875 91.4624 855.875 84.8064C855.875 78.3211 857.198 72.6464 859.843 67.7824C862.574 62.9184 866.286 59.1211 870.979 56.3904C875.758 53.5744 881.176 52.1664 887.235 52.1664C891.672 52.1664 895.64 52.8917 899.139 54.3424C902.723 55.7931 905.752 57.8837 908.227 60.6144C910.787 63.3451 912.707 66.6731 913.987 70.5984C915.352 74.4384 916.035 78.7904 916.035 83.6544C916.035 85.1904 915.48 86.3851 914.371 87.2384C913.347 88.0064 911.854 88.3904 909.891 88.3904H868.803V79.1744H904.771L902.723 81.0944C902.723 77.1691 902.126 73.8837 900.931 71.2384C899.822 68.5931 898.158 66.5877 895.939 65.2224C893.806 63.7717 891.118 63.0464 887.875 63.0464C884.291 63.0464 881.219 63.8997 878.659 65.6064C876.184 67.2277 874.264 69.5744 872.899 72.6464C871.619 75.6331 870.979 79.2171 870.979 83.3984V84.2944C870.979 91.2917 872.6 96.5397 875.843 100.038C879.171 103.452 884.035 105.158 890.435 105.158C892.654 105.158 895.128 104.902 897.859 104.39C900.675 103.793 903.32 102.812 905.795 101.446C907.587 100.422 909.166 99.9957 910.531 100.166C911.896 100.252 912.963 100.721 913.731 101.574C914.584 102.428 915.096 103.494 915.267 104.774C915.438 105.969 915.182 107.206 914.499 108.486C913.902 109.766 912.835 110.876 911.299 111.814C908.312 113.692 904.856 115.1 900.931 116.038C897.091 116.892 893.507 117.318 890.179 117.318Z" fill="#1E293B"/>
<path d="M932.775 119.75C932.263 121.372 931.452 122.524 930.343 123.206C929.234 123.974 927.996 124.358 926.631 124.358C925.351 124.358 924.156 124.017 923.047 123.334C921.938 122.652 921.17 121.67 920.743 120.39C920.231 119.196 920.231 117.745 920.743 116.038L950.311 24.2624C950.823 22.6411 951.634 21.4464 952.743 20.6784C953.938 19.9104 955.175 19.5691 956.455 19.6544C957.735 19.6544 958.93 19.9957 960.039 20.6784C961.148 21.3611 961.916 22.2997 962.343 23.4944C962.855 24.6891 962.855 26.1397 962.343 27.8464L932.775 119.75Z" fill="#F87171"/>
<path d="M984.987 117.318C979.782 117.318 975.472 116.38 972.059 114.502C968.646 112.54 966.086 109.638 964.379 105.798C962.758 101.958 961.947 97.1797 961.947 91.4624V60.4864C961.947 57.7557 962.63 55.7504 963.995 54.4704C965.36 53.1051 967.323 52.4224 969.883 52.4224C972.443 52.4224 974.406 53.1051 975.771 54.4704C977.222 55.7504 977.947 57.7557 977.947 60.4864V91.7184C977.947 96.1557 978.843 99.4411 980.635 101.574C982.427 103.708 985.286 104.774 989.211 104.774C993.478 104.774 996.976 103.324 999.707 100.422C1002.44 97.4357 1003.8 93.5104 1003.8 88.6464V60.4864C1003.8 57.7557 1004.49 55.7504 1005.85 54.4704C1007.22 53.1051 1009.18 52.4224 1011.74 52.4224C1014.3 52.4224 1016.26 53.1051 1017.63 54.4704C1019.08 55.7504 1019.8 57.7557 1019.8 60.4864V108.87C1019.8 114.332 1017.2 117.062 1011.99 117.062C1009.52 117.062 1007.6 116.38 1006.23 115.014C1004.87 113.564 1004.19 111.516 1004.19 108.87V99.1424L1005.98 102.982C1004.19 107.59 1001.46 111.132 997.787 113.606C994.203 116.081 989.936 117.318 984.987 117.318Z" fill="#F87171"/>
<path d="M1044.39 116.934C1041.83 116.934 1039.87 116.166 1038.5 114.63C1037.14 113.094 1036.46 110.961 1036.46 108.23V61.2544C1036.46 58.4384 1037.14 56.3051 1038.5 54.8544C1039.87 53.3184 1041.83 52.5504 1044.39 52.5504C1046.95 52.5504 1048.91 53.3184 1050.28 54.8544C1051.73 56.3051 1052.46 58.4384 1052.46 61.2544V108.23C1052.46 110.961 1051.77 113.094 1050.41 114.63C1049.04 116.166 1047.04 116.934 1044.39 116.934ZM1044.39 40.6464C1041.41 40.6464 1039.06 39.9211 1037.35 38.4704C1035.73 36.9344 1034.92 34.8437 1034.92 32.1984C1034.92 29.4677 1035.73 27.3771 1037.35 25.9264C1039.06 24.4757 1041.41 23.7504 1044.39 23.7504C1047.46 23.7504 1049.81 24.4757 1051.43 25.9264C1053.05 27.3771 1053.86 29.4677 1053.86 32.1984C1053.86 34.8437 1053.05 36.9344 1051.43 38.4704C1049.81 39.9211 1047.46 40.6464 1044.39 40.6464Z" fill="#F87171"/>
</svg>
